<?xml version="1.0" encoding="UTF-8" standalone="no"?>
<!DOCTYPE svg PUBLIC "-//W3C//DTD SVG 1.1//EN"
 "http://www.w3.org/Graphics/SVG/1.1/DTD/svg11.dtd">
<!-- Generated by graphviz version 2.43.0 (0)
 -->
<!-- Title: %3 Pages: 1 -->
<svg width="905pt" height="131pt"
 viewBox="0.00 0.00 905.39 130.50" xmlns="http://www.w3.org/2000/svg" xmlns:xlink="http://www.w3.org/1999/xlink">
<g id="graph0" class="graph" transform="scale(1 1) rotate(0) translate(4 126.5)">
<title>%3</title>
<polygon fill="white" stroke="transparent" points="-4,4 -4,-126.5 901.39,-126.5 901.39,4 -4,4"/>
<!-- backend -->
<g id="node1" class="node">
<title>backend</title>
<path fill="#f0f0f0" stroke="black" d="M309,-69C309,-69 223,-69 223,-69 217,-69 211,-63 211,-57 211,-57 211,-43 211,-43 211,-37 217,-31 223,-31 223,-31 309,-31 309,-31 315,-31 321,-37 321,-43 321,-43 321,-57 321,-57 321,-63 315,-69 309,-69"/>
<text text-anchor="middle" x="266" y="-53.8" font-family="Times,serif" font-size="14.00">backend</text>
<text text-anchor="middle" x="266" y="-38.8" font-family="Times,serif" font-size="14.00">Ports: 3001:3001</text>
</g>
<!-- mongodb -->
<g id="node2" class="node">
<title>mongodb</title>
<path fill="#f0f0f0" stroke="black" d="M533,-122.5C533,-122.5 434,-122.5 434,-122.5 428,-122.5 422,-116.5 422,-110.5 422,-110.5 422,-81.5 422,-81.5 422,-75.5 428,-69.5 434,-69.5 434,-69.5 533,-69.5 533,-69.5 539,-69.5 545,-75.5 545,-81.5 545,-81.5 545,-110.5 545,-110.5 545,-116.5 539,-122.5 533,-122.5"/>
<text text-anchor="middle" x="483.5" y="-107.3" font-family="Times,serif" font-size="14.00">mongodb</text>
<text text-anchor="middle" x="483.5" y="-92.3" font-family="Times,serif" font-size="14.00">Image: mongo</text>
<text text-anchor="middle" x="483.5" y="-77.3" font-family="Times,serif" font-size="14.00">Ports: 27017:27017</text>
</g>
<!-- backend&#45;&gt;mongodb -->
<g id="edge1" class="edge">
<title>backend&#45;&gt;mongodb</title>
<path fill="none" stroke="black" d="M321.1,-61.55C348.66,-67.43 382.5,-74.65 412.06,-80.96"/>
<polygon fill="black" stroke="black" points="411.4,-84.4 421.91,-83.07 412.86,-77.56 411.4,-84.4"/>
<text text-anchor="middle" x="371.5" y="-81.8" font-family="Times,serif" font-size="14.00">depends_on</text>
</g>
<!-- mongo_net -->
<g id="node5" class="node">
<title>mongo_net</title>
<polygon fill="#d0d0d0" stroke="black" points="825.69,-59 753.81,-41 825.69,-23 897.58,-41 825.69,-59"/>
<text text-anchor="middle" x="825.69" y="-37.3" font-family="Times,serif" font-size="14.00">mongo_net</text>
</g>
<!-- backend&#45;&gt;mongo_net -->
<g id="edge4" class="edge">
<title>backend&#45;&gt;mongo_net</title>
<path fill="none" stroke="black" stroke-dasharray="5,2" d="M321.23,-49.12C420.87,-47.52 633.32,-44.09 747.8,-42.24"/>
<polygon fill="black" stroke="black" points="747.95,-45.74 757.89,-42.08 747.84,-38.74 747.95,-45.74"/>
</g>
<g id="node4" class="node">
<title></title>
<path fill="#e0e0e0" stroke="black" d="M852.69,-113.73C852.69,-115.53 840.59,-117 825.69,-117 810.8,-117 798.69,-115.53 798.69,-113.73 798.69,-113.73 798.69,-84.27 798.69,-84.27 798.69,-82.47 810.8,-81 825.69,-81 840.59,-81 852.69,-82.47 852.69,-84.27 852.69,-84.27 852.69,-113.73 852.69,-113.73"/>
<path fill="none" stroke="black" d="M852.69,-113.73C852.69,-111.92 840.59,-110.45 825.69,-110.45 810.8,-110.45 798.69,-111.92 798.69,-113.73"/>
</g>
<!-- mongodb&#45;&gt; -->
<g id="edge3" class="edge">
<title>mongodb&#45;&gt;</title>
<path fill="none" stroke="black" d="M545.32,-96.54C616.03,-97.16 730.43,-98.17 788.45,-98.68"/>
<polygon fill="black" stroke="black" points="788.58,-102.18 798.61,-98.77 788.64,-95.18 788.58,-102.18"/>
<text text-anchor="middle" x="649.5" y="-101.8" font-family="Times,serif" font-size="14.00">mounts:mongodb_data:/data/db</text>
</g>
<!-- mongodb&#45;&gt;mongo_net -->
<g id="edge6" class="edge">
<title>mongodb&#45;&gt;mongo_net</title>
<path fill="none" stroke="black" stroke-dasharray="5,2" d="M545.32,-86.17C609.55,-75.78 709.82,-59.57 771.15,-49.66"/>
<polygon fill="black" stroke="black" points="772.08,-53.05 781.39,-48 770.96,-46.14 772.08,-53.05"/>
</g>
<!-- frontend -->
<g id="node3" class="node">
<title>frontend</title>
<path fill="#f0f0f0" stroke="black" d="M98,-38C98,-38 12,-38 12,-38 6,-38 0,-32 0,-26 0,-26 0,-12 0,-12 0,-6 6,0 12,0 12,0 98,0 98,0 104,0 110,-6 110,-12 110,-12 110,-26 110,-26 110,-32 104,-38 98,-38"/>
<text text-anchor="middle" x="55" y="-22.8" font-family="Times,serif" font-size="14.00">frontend</text>
<text text-anchor="middle" x="55" y="-7.8" font-family="Times,serif" font-size="14.00">Ports: 3000:3000</text>
</g>
<!-- frontend&#45;&gt;backend -->
<g id="edge2" class="edge">
<title>frontend&#45;&gt;backend</title>
<path fill="none" stroke="black" d="M110.09,-27.02C137.79,-31.13 171.7,-36.16 200.73,-40.47"/>
<polygon fill="black" stroke="black" points="200.36,-43.95 210.77,-41.96 201.39,-37.03 200.36,-43.95"/>
<text text-anchor="middle" x="160.5" y="-42.8" font-family="Times,serif" font-size="14.00">depends_on</text>
</g>
<!-- frontend&#45;&gt;mongo_net -->
<g id="edge5" class="edge">
<title>frontend&#45;&gt;mongo_net</title>
<path fill="none" stroke="black" stroke-dasharray="5,2" d="M110.06,-19.19C163.62,-19.49 247.98,-20.21 321,-22 475.83,-25.8 657.33,-33.42 754.61,-37.77"/>
<polygon fill="black" stroke="black" points="754.47,-41.27 764.62,-38.22 754.79,-34.28 754.47,-41.27"/>
</g>
</g>
</svg>
